# xmcd CD database file generated by Grip 2.94
# 
# Track frame offsets:
#       150
#       28514
#       44673
#       58807
#       70840
#       86549
#       103169
#       134044
# 
# Disc length: 1978 seconds
# 
# Revision: 3
# Processed by: cddbd v1.4b41PL1 Copyright (c) Steve Scherf et al.
# Submitted via: Grip 2.94
# 
DISCID=7507b808
DTITLE=Done by the strugglers - Done by the strugglers
DYEAR=1900
DGENRE=
TTITLE0=Virginy
TTITLE1=Goodness gracious
TTITLE2=Taking off
TTITLE3=On the beach
TTITLE4=Knot in your shoestring
TTITLE5=The matter with you
TTITLE6=Song of long lines
TTITLE7=On the way to the grave
EXTD=
EXTT0=
EXTT1=
EXTT2=
EXTT3=
EXTT4=
EXTT5=
EXTT6=
EXTT7=
PLAYORDER=
